<svg xmlns="http://www.w3.org/2000/svg" width="30.343" height="30.343" viewBox="0 0 30.343 30.343"><defs><style>.a{fill:#55acee;}.b{fill:#f1f2f2;}</style></defs><ellipse class="a" cx="15.172" cy="15.172" rx="15.172" ry="15.172" transform="translate(0 0)"/><g transform="translate(6.789 9.203)"><path class="b" d="M42.779,35.729a7.235,7.235,0,0,1-2.083.57,3.636,3.636,0,0,0,1.595-2.006,7.26,7.26,0,0,1-2.3.88,3.629,3.629,0,0,0-6.18,3.308,10.294,10.294,0,0,1-7.475-3.79,3.63,3.63,0,0,0,1.122,4.842,3.6,3.6,0,0,1-1.642-.454c0,.015,0,.031,0,.046a3.629,3.629,0,0,0,2.909,3.556,3.641,3.641,0,0,1-1.638.063,3.63,3.63,0,0,0,3.388,2.518,7.321,7.321,0,0,1-5.369,1.5A10.313,10.313,0,0,0,40.98,38.074c0-.157,0-.314-.011-.469a7.354,7.354,0,0,0,1.81-1.877Z" transform="translate(-25.103 -34.028)"/></g></svg>