<svg xmlns="http://www.w3.org/2000/svg" width="21.011" height="21.012" viewBox="0 0 21.011 21.012"><defs><style>.a{fill:#6e6e81;}</style></defs><g transform="translate(0)"><path class="a" d="M17.946,3.078A10.5,10.5,0,0,0,2.429,17.2,4.019,4.019,0,0,1,.746,19.071a.985.985,0,0,0,.284,1.857,5.43,5.43,0,0,0,.831.062,6.272,6.272,0,0,0,3.7-1.226A10.5,10.5,0,0,0,17.946,3.078ZM17.1,17.085A9.3,9.3,0,0,1,5.805,18.533a.6.6,0,0,0-.729.093.2.2,0,0,0-.049.036A5.129,5.129,0,0,1,1.861,19.79h0A5.882,5.882,0,0,0,3.66,17.4a.614.614,0,0,0,.031-.386.624.624,0,0,0-.147-.338,9.305,9.305,0,1,1,13.553.413Z" transform="translate(-0.019 0)"/><ellipse class="a" cx="0.737" cy="0.737" rx="0.737" ry="0.737" transform="translate(9.762 9.769)"/><ellipse class="a" cx="0.737" cy="0.737" rx="0.737" ry="0.737" transform="translate(13.565 9.769)"/><ellipse class="a" cx="0.737" cy="0.737" rx="0.737" ry="0.737" transform="translate(5.96 9.769)"/></g></svg>