<svg xmlns="http://www.w3.org/2000/svg" width="13.065" height="17.53" viewBox="0 0 13.065 17.53"><defs><style>.a{fill:#ef5827;}</style></defs><g transform="translate(-52.016 0)"><g transform="translate(52.016)"><path class="a" d="M74.631,111.884a.882.882,0,0,0,.881.845h8.236a.882.882,0,0,0,.881-.845l.588-12.416H74.043Zm6.862-9.332a.358.358,0,0,1,.358-.358h.573a.358.358,0,0,1,.358.358v7.093a.358.358,0,0,1-.358.358h-.573a.358.358,0,0,1-.358-.358Zm-2.508,0a.358.358,0,0,1,.358-.358h.573a.358.358,0,0,1,.358.358v7.093a.358.358,0,0,1-.358.358h-.573a.358.358,0,0,1-.358-.358v-7.093Zm-2.508,0a.358.358,0,0,1,.358-.358h.573a.358.358,0,0,1,.358.358v7.093a.358.358,0,0,1-.358.358h-.573a.358.358,0,0,1-.358-.358Z" transform="translate(-73.098 -95.199)"/><path class="a" d="M64.528.9h-3.8V.185A.185.185,0,0,0,60.544,0h-3.99a.185.185,0,0,0-.185.185V.9h-3.8a.554.554,0,0,0-.554.554V3.2H65.081V1.457A.554.554,0,0,0,64.528.9Z" transform="translate(-52.016)"/></g></g></svg>