<svg xmlns="http://www.w3.org/2000/svg" width="14.662" height="16.36" viewBox="0 0 14.662 16.36"><defs><style>.a{fill:#ef5827;}</style></defs><g transform="translate(-26.57)"><g transform="translate(26.57)"><g transform="translate(0)"><path class="a" d="M114.32,200.639a.639.639,0,0,0-.639-.639H107.1a.639.639,0,1,0,0,1.278h6.582A.639.639,0,0,0,114.32,200.639Z" transform="translate(-103.906 -193.609)"/><path class="a" d="M107.1,280a.639.639,0,0,0,0,1.278h4a.639.639,0,0,0,0-1.278Z" transform="translate(-103.906 -271.053)"/><path class="a" d="M31.264,15.082H29.126A1.28,1.28,0,0,1,27.848,13.8V2.556a1.28,1.28,0,0,1,1.278-1.278h7.857a1.28,1.28,0,0,1,1.278,1.278v3.93a.639.639,0,0,0,1.278,0V2.556A2.559,2.559,0,0,0,36.983,0H29.126A2.559,2.559,0,0,0,26.57,2.556V13.8a2.559,2.559,0,0,0,2.556,2.556h2.137a.639.639,0,0,0,0-1.278Z" transform="translate(-26.57)"/><path class="a" d="M250.628,272.585a1.919,1.919,0,0,0-2.711,0l-3.509,3.5a.639.639,0,0,0-.16.267l-.764,2.516a.639.639,0,0,0,.782.8l2.579-.715a.639.639,0,0,0,.281-.164l3.5-3.495A1.919,1.919,0,0,0,250.628,272.585Zm-4.285,5.183-1.3.359.38-1.25,2.367-2.362.9.9Zm3.382-3.376-.124.124-.9-.9.123-.123a.639.639,0,0,1,.9.9Z" transform="translate(-236.527 -263.332)"/><path class="a" d="M113.681,120H107.1a.639.639,0,1,0,0,1.278h6.582a.639.639,0,0,0,0-1.278Z" transform="translate(-103.906 -116.166)"/></g></g></g></svg>