<svg xmlns="http://www.w3.org/2000/svg" xmlns:xlink="http://www.w3.org/1999/xlink" width="74.384" height="74.384" viewBox="0 0 74.384 74.384"><defs><style>.a{fill:#fff;}.b{fill:#ef5827;}.c{filter:url(#a);}</style><filter id="a" x="0" y="0" width="74.384" height="74.384" filterUnits="userSpaceOnUse"><feOffset dy="3" input="SourceAlpha"/><feGaussianBlur stdDeviation="3" result="b"/><feFlood flood-opacity="0.161"/><feComposite operator="in" in2="b"/><feComposite in="SourceGraphic"/></filter></defs><g transform="translate(9 6)"><g class="c" transform="matrix(1, 0, 0, 1, -9, -6)"><path class="a" d="M28.192,0A28.192,28.192,0,1,1,0,28.192,28.192,28.192,0,0,1,28.192,0Z" transform="translate(9 6)"/></g><g transform="translate(14.561 14.677)"><path class="b" d="M14.111,19.754a6.773,6.773,0,1,1,6.772,6.774A6.78,6.78,0,0,1,14.111,19.754Zm2.257,0a4.516,4.516,0,1,0,4.515-4.514A4.52,4.52,0,0,0,16.368,19.754ZM3.88,24.834A3.884,3.884,0,0,1,0,20.954V5.82A3.884,3.884,0,0,1,3.88,1.94H5.093V.97a.97.97,0,1,1,1.94,0v.97H11.4V.97a.97.97,0,1,1,1.939,0v.97h4.414V.97a.97.97,0,1,1,1.94,0v.97h1.261a3.884,3.884,0,0,1,3.88,3.88v5.53a.97.97,0,1,1-1.939,0V5.82a1.943,1.943,0,0,0-1.94-1.94H19.693v.97a.97.97,0,1,1-1.94,0V3.88H13.338v.97a.97.97,0,1,1-1.939,0V3.88H7.033v.97a.97.97,0,1,1-1.94,0V3.88H3.88A1.942,1.942,0,0,0,1.94,5.82V20.954a1.942,1.942,0,0,0,1.939,1.94H11.3a.97.97,0,1,1,0,1.939Zm16.215-3.769a.97.97,0,0,1-.97-.97V18.105a.97.97,0,1,1,1.94,0v1.019H21.5a.97.97,0,0,1,0,1.94ZM9.313,18.625a.97.97,0,1,1,.97.97A.97.97,0,0,1,9.313,18.625Zm-4.22,0a.97.97,0,1,1,.97.97A.971.971,0,0,1,5.093,18.625Zm4.22-4.219a.97.97,0,1,1,.97.97A.969.969,0,0,1,9.313,14.406Zm-4.22,0a.97.97,0,1,1,.97.97A.97.97,0,0,1,5.093,14.406Zm12.66-4.22a.97.97,0,1,1,.97.97A.97.97,0,0,1,17.753,10.186Zm-4.22,0a.97.97,0,1,1,.97.97A.971.971,0,0,1,13.532,10.186Zm-4.219,0a.97.97,0,1,1,.97.97A.97.97,0,0,1,9.313,10.186Zm-4.22,0a.97.97,0,1,1,.97.97A.971.971,0,0,1,5.093,10.186Z"/></g></g></svg>