<svg xmlns="http://www.w3.org/2000/svg" width="26.203" height="26.162" viewBox="0 0 26.203 26.162"><defs><style>.a{opacity:0.52;}</style></defs><g class="a" transform="translate(315.208 -97.923)"><g transform="translate(-315.208 101.82)"><path d="M21.045,37.3H1.22A1.22,1.22,0,0,1,0,36.078V16.253a1.22,1.22,0,0,1,1.22-1.22h9.912a1.22,1.22,0,0,1,0,2.44H2.44V34.858H19.825V26.166a1.22,1.22,0,1,1,2.44,0v9.912A1.22,1.22,0,0,1,21.045,37.3Z" transform="translate(0 -15.033)"/></g><g transform="translate(-308.965 97.923)"><g transform="translate(0 0)"><path d="M43.427,3.369,40.579.521a1.217,1.217,0,0,0-1.726,0L36.3,3.07a.113.113,0,0,0-.028.028h0l-9.958,9.961a1.237,1.237,0,0,0-.259.381L23.92,18.424a1.222,1.222,0,0,0,1.6,1.6l4.981-2.132a1.209,1.209,0,0,0,.381-.259L43.428,5.093A1.219,1.219,0,0,0,43.427,3.369Zm-14.1,12.374-1.964.839.842-1.964L36.922,5.9l1.122,1.122Zm10.01-10.01L38.215,4.608l1.5-1.5L40.838,4.23Z" transform="translate(-23.823 -0.162)"/></g></g></g></svg>