<svg xmlns="http://www.w3.org/2000/svg" width="22.848" height="20.555" viewBox="0 0 22.848 20.555"><defs><style>.a{fill:#6e6e81;}</style></defs><path class="a" d="M11.424,20.555a1.331,1.331,0,0,1-.883-.336c-.923-.816-1.813-1.583-2.6-2.26l0,0a48.546,48.546,0,0,1-5.673-5.384A8.652,8.652,0,0,1,0,6.943,7.268,7.268,0,0,1,1.813,2.012,6.113,6.113,0,0,1,6.383,0a5.706,5.706,0,0,1,3.59,1.253,7.391,7.391,0,0,1,1.451,1.532,7.392,7.392,0,0,1,1.452-1.532A5.706,5.706,0,0,1,16.465,0a6.113,6.113,0,0,1,4.57,2.012,7.268,7.268,0,0,1,1.812,4.932,8.651,8.651,0,0,1-2.266,5.629,48.535,48.535,0,0,1-5.672,5.384c-.787.678-1.678,1.446-2.6,2.264A1.332,1.332,0,0,1,11.424,20.555ZM6.383,1.353A4.8,4.8,0,0,0,2.8,2.929,5.913,5.913,0,0,0,1.338,6.943,7.279,7.279,0,0,0,3.3,11.709a47.77,47.77,0,0,0,5.51,5.218l0,0c.788.679,1.681,1.449,2.611,2.271.935-.824,1.83-1.595,2.62-2.275a47.778,47.778,0,0,0,5.51-5.217,7.279,7.279,0,0,0,1.958-4.765,5.913,5.913,0,0,0-1.458-4.014,4.8,4.8,0,0,0-3.586-1.575,4.408,4.408,0,0,0-2.771.97,6.548,6.548,0,0,0-1.544,1.807.84.84,0,0,1-1.451,0A6.542,6.542,0,0,0,9.154,2.324,4.407,4.407,0,0,0,6.383,1.353Zm0,0" transform="translate(0)"/></svg>