<svg xmlns="http://www.w3.org/2000/svg" xmlns:xlink="http://www.w3.org/1999/xlink" width="43.152" height="43.153" viewBox="0 0 43.152 43.153"><defs><style>.a{fill:url(#a);}.b{fill:url(#b);}.c{fill:url(#c);}.d{fill:url(#d);}.e{fill:url(#e);}.f{fill:url(#f);}.g{fill:url(#g);}.h{fill:url(#h);}.i{fill:#fff;}</style><radialGradient id="a" cx="8.846" cy="37.712" r="47.59" gradientUnits="userSpaceOnUse"><stop offset="0" stop-color="#fae100"/><stop offset="0.054" stop-color="#fadc04"/><stop offset="0.117" stop-color="#fbce0e"/><stop offset="0.183" stop-color="#fcb720"/><stop offset="0.251" stop-color="#fe9838"/><stop offset="0.305" stop-color="#ff7950"/><stop offset="0.492" stop-color="#ff1c74"/><stop offset="1" stop-color="#6c1cd1"/></radialGradient><linearGradient id="b" x1="0.369" y1="0.426" x2="-1.54" y2="-0.648" gradientUnits="objectBoundingBox"><stop offset="0" stop-color="#a1b5d8" stop-opacity="0"/><stop offset="0.309" stop-color="#90a2bd" stop-opacity="0.31"/><stop offset="0.755" stop-color="#7c8b9c" stop-opacity="0.757"/><stop offset="1" stop-color="#748290"/></linearGradient><linearGradient id="c" x1="0.5" y1="0.413" x2="0.5" y2="1.193" gradientUnits="objectBoundingBox"><stop offset="0" stop-color="#fae100" stop-opacity="0"/><stop offset="0.307" stop-color="#fca800" stop-opacity="0.306"/><stop offset="0.627" stop-color="#fe7300" stop-opacity="0.627"/><stop offset="0.868" stop-color="#ff5200" stop-opacity="0.867"/><stop offset="1" stop-color="#ff4500"/></linearGradient><linearGradient id="d" x1="0.316" y1="0.311" x2="0.012" y2="0.005" gradientUnits="objectBoundingBox"><stop offset="0" stop-color="#833ab4" stop-opacity="0"/><stop offset="1" stop-color="#833ab4"/></linearGradient><linearGradient id="e" x1="0.582" y1="0.887" x2="0.418" y2="0.113" xlink:href="#d"/><linearGradient id="f" x1="0.605" y1="0.605" x2="-0.16" y2="-0.16" xlink:href="#d"/><linearGradient id="g" x1="0.376" y1="0.332" x2="-0.072" y2="-0.063" xlink:href="#d"/><linearGradient id="h" x1="0.816" y1="0.182" x2="0.172" y2="0.835" gradientUnits="objectBoundingBox"><stop offset="0" stop-color="#833ab4"/><stop offset="0.092" stop-color="#9c3495"/><stop offset="0.293" stop-color="#dc2546"/><stop offset="0.392" stop-color="#fd1d1d"/><stop offset="0.559" stop-color="#fc6831"/><stop offset="0.689" stop-color="#fc9b40"/><stop offset="0.752" stop-color="#fcaf45"/><stop offset="0.781" stop-color="#fdb750"/><stop offset="0.866" stop-color="#fecb6a"/><stop offset="0.942" stop-color="#ffd87a"/><stop offset="1" stop-color="#ffdc80"/></linearGradient></defs><g transform="translate(0 0)"><path class="a" d="M42.414,7.718a7.857,7.857,0,0,0-6.98-6.98,130.336,130.336,0,0,0-27.715,0,7.857,7.857,0,0,0-6.98,6.98,130.336,130.336,0,0,0,0,27.715,7.857,7.857,0,0,0,6.98,6.98,130.34,130.34,0,0,0,27.716,0,7.857,7.857,0,0,0,6.98-6.98A130.337,130.337,0,0,0,42.414,7.718Zm0,0" transform="translate(0 0)"/><path class="b" d="M66.471,35.683a6.972,6.972,0,0,0-6.193-6.194,115.7,115.7,0,0,0-24.594,0,6.973,6.973,0,0,0-6.194,6.194,115.7,115.7,0,0,0,0,24.594,6.973,6.973,0,0,0,6.194,6.194,115.655,115.655,0,0,0,24.594,0,6.972,6.972,0,0,0,6.194-6.194A115.655,115.655,0,0,0,66.471,35.683Zm0,0" transform="translate(-26.404 -26.404)"/><path class="c" d="M7.672,409.8q.044.448.092.895a7.858,7.858,0,0,0,6.98,6.98,130.329,130.329,0,0,0,27.715,0,7.857,7.857,0,0,0,6.98-6.98q.048-.447.093-.895Zm0,0" transform="translate(-7.025 -375.265)"/><path class="d" d="M129.489,124.549a130.457,130.457,0,0,0,.734-14.893l-9.864-9.864a7.065,7.065,0,0,0-5.147-2.361c-4.349-.157-8.713-.149-13.063,0a6.981,6.981,0,0,0-6.787,6.122c-.114.63-.183,1.269-.273,1.9v10.464c.05.339.123.677.146,1.018a7.607,7.607,0,0,0,2.466,5.288l10.038,10.037a130.46,130.46,0,0,0,14.771-.736A7.857,7.857,0,0,0,129.489,124.549Zm0,0" transform="translate(-87.075 -89.115)"/><path class="e" d="M158.027,151.516a7.858,7.858,0,0,1-6.98,6.98,130.511,130.511,0,0,1-14.771.735l-10.022-10.022a7.027,7.027,0,0,0,4.434,1.7c4.349.163,8.713.159,13.063,0a6.99,6.99,0,0,0,6.9-6.987c.131-4.177.131-8.364,0-12.541a7.281,7.281,0,0,0-1.749-4.62l9.857,9.857A130.7,130.7,0,0,1,158.027,151.516Zm0,0" transform="translate(-115.613 -116.082)"/><path class="f" d="M186,176.231A6.911,6.911,0,1,0,176.231,186l15.992,15.992q1.27-.111,2.539-.246a7.858,7.858,0,0,0,6.98-6.98q.135-1.269.246-2.539Zm0,0" transform="translate(-159.328 -159.328)"/><path class="g" d="M339.107,164.262l-12.87-12.87a1.643,1.643,0,1,0-2.3,2.3l14.942,14.942Q339.029,166.45,339.107,164.262Zm0,0" transform="translate(-296.038 -138.037)"/><path class="h" d="M95.09,105.458c.09-.635.158-1.273.273-1.9a6.98,6.98,0,0,1,6.787-6.122c4.35-.149,8.713-.157,13.063,0a6.99,6.99,0,0,1,6.9,6.987q.2,6.265,0,12.541a6.99,6.99,0,0,1-6.9,6.987c-4.349.157-8.714.161-13.063,0a7.111,7.111,0,0,1-6.915-7.006c-.023-.341-.1-.679-.146-1.018Zm13.566,16.158c1.99,0,3.983.06,5.971-.014,3.117-.116,5.034-1.976,5.107-5.09q.135-5.82,0-11.645a4.826,4.826,0,0,0-5.107-5.083q-5.932-.125-11.867,0a4.8,4.8,0,0,0-5.1,5.009q-.16,5.893,0,11.794c.084,3.079,2.007,4.9,5.1,5.015C104.722,121.674,106.69,121.615,108.655,121.615Zm0,0" transform="translate(-87.075 -89.115)"/><g transform="translate(8.014 8.202)"><path class="i" d="M95.09,105.458c.09-.635.158-1.273.273-1.9a6.98,6.98,0,0,1,6.787-6.122c4.35-.149,8.713-.157,13.063,0a6.99,6.99,0,0,1,6.9,6.987q.2,6.265,0,12.541a6.99,6.99,0,0,1-6.9,6.987c-4.349.157-8.714.161-13.063,0a7.111,7.111,0,0,1-6.915-7.006c-.023-.341-.1-.679-.146-1.018Zm13.566,16.158c1.99,0,3.983.06,5.971-.014,3.117-.116,5.034-1.976,5.107-5.09q.135-5.82,0-11.645a4.826,4.826,0,0,0-5.107-5.083q-5.932-.125-11.867,0a4.8,4.8,0,0,0-5.1,5.009q-.16,5.893,0,11.794c.084,3.079,2.007,4.9,5.1,5.015C104.722,121.674,106.69,121.615,108.655,121.615Zm0,0" transform="translate(-95.09 -97.317)"/><path class="i" d="M180.9,174a6.912,6.912,0,1,0,6.912,6.911A6.912,6.912,0,0,0,180.9,174Zm0,11.444a4.532,4.532,0,1,1,4.532-4.532A4.532,4.532,0,0,1,180.9,185.44Zm0,0" transform="translate(-167.342 -167.533)"/><path class="i" d="M326.574,152.387a1.644,1.644,0,1,1-1.644-1.645A1.644,1.644,0,0,1,326.574,152.387Zm0,0" transform="translate(-304.052 -146.239)"/></g></g></svg>