<svg xmlns="http://www.w3.org/2000/svg" width="34.108" height="21.535" viewBox="0 0 34.108 21.535"><defs><style>.a{fill:#ef5827;}</style></defs><g transform="translate(0 0)"><path class="a" d="M12.864,101.342A6.5,6.5,0,0,0,6.432,94.8,6.5,6.5,0,0,0,0,101.342a6.6,6.6,0,0,0,.688,2.941l5.744,12.051,5.745-12.052A6.593,6.593,0,0,0,12.864,101.342Zm-6.432,3.621a3.621,3.621,0,0,1,0-7.242,3.621,3.621,0,0,1,0,7.242Z" transform="translate(0 -94.799)"/><path class="a" d="M389.215,97.469a3.945,3.945,0,0,0-3.906,3.974,4,4,0,0,0,.418,1.786l3.489,7.319,3.489-7.32a4.006,4.006,0,0,0,.417-1.785A3.945,3.945,0,0,0,389.215,97.469Zm0,6.173a2.2,2.2,0,1,1,2.162-2.2A2.183,2.183,0,0,1,389.215,103.642Z" transform="translate(-359.013 -97.284)"/><path class="a" d="M117,256.826l-.667-.012-.335.706-2.864,6.04-4.155-.092-1.732,3.634,6.91-.154,1.222-.027.317-1.039,2.1-6.878,11.568-.206-.842-1.767Z" transform="translate(-99.925 -245.566)"/></g></svg>