<svg xmlns="http://www.w3.org/2000/svg" width="53.384" height="32.093" viewBox="0 0 53.384 32.093"><defs><style>.a{fill:#faa831;}</style></defs><g transform="translate(0 -102.098)"><g transform="translate(0.551 126.732)"><path class="a" d="M8.465,341.531a8.1,8.1,0,0,1-.712-.938c-.217-.48-1.251-2.447-1.613-2.212s-1.879-.862.3,3.065a9.711,9.711,0,0,0,.85,1.119c1.819,2.105,3.422,2.323,3.847,1.935C11.458,344.21,9.127,342.152,8.465,341.531Z" transform="translate(-5.289 -338.362)"/></g><g transform="translate(0 102.098)"><g transform="translate(0)"><path class="a" d="M45.786,115.188a6.841,6.841,0,0,0,.382-1.278,6.469,6.469,0,0,0,2.765-2.586l.686-1.2a5.093,5.093,0,0,1,1.438-1.6l.612-.444a1.578,1.578,0,0,0-.552-2.81l-2.627-.641a5.224,5.224,0,0,0-4.643,1.118l-1.05.907a8.977,8.977,0,0,1-4.535,2.084.782.782,0,1,0,.233,1.547,10.54,10.54,0,0,0,4.972-2.157c-.551,2.643-2.813,4.095-4.838,4.877H34.174l1.965-1.378a1.919,1.919,0,0,0-.955-3.484l-11.464-.882a3.617,3.617,0,0,0-1.684.273l-6.191-.867.334-1.211a1.673,1.673,0,0,0-.385-1.6,1.794,1.794,0,0,0-1.672-.493,2.107,2.107,0,0,0-4.042.837v.575a14.6,14.6,0,0,0-6.9,7.907,2.844,2.844,0,0,0,.4,2.748A9.408,9.408,0,0,0,.112,119.51c-.425.861.5,1.955.547,1.994a9.653,9.653,0,0,0,.021,6.221.857.857,0,0,0,.995.484.787.787,0,0,0,.484-.995,8.071,8.071,0,0,1,.075-5.464c.052-.018,2.212-1.02,2.212-1.02a6.568,6.568,0,1,0,11.113,6.946,3.156,3.156,0,0,0,.869,1.41,8.076,8.076,0,0,1-6.665,3.541,7.994,7.994,0,0,1-4.6-1.446.782.782,0,1,0-.9,1.282A9.609,9.609,0,0,0,17.8,129.847a3.153,3.153,0,0,0,.8.1H30.56a4.3,4.3,0,0,0,2.324-.682h2.5a9.608,9.608,0,1,0,10.4-14.08Zm-2.713-3.182a7.13,7.13,0,0,0,2.084-5.294,3.656,3.656,0,0,1,2.962-.56l2.633.642a.02.02,0,0,1,0,.023l-.612.444a6.649,6.649,0,0,0-1.877,2.088l-.686,1.2a4.911,4.911,0,0,1-4.25,2.462H41.908A9.047,9.047,0,0,0,43.073,112.006Zm.253,2.566a6.427,6.427,0,0,0,1.051-.087c-.483,1.256-1.64,3.012-4.337,5.019a5.21,5.21,0,0,0-8.723-1.483l-1.212-.82a.809.809,0,0,1-.011-1.332s1.875-1.3,1.887-1.3H43.326Zm-2.411,12.4v-.278h.5a3.168,3.168,0,0,0,5.445-2.852,1.823,1.823,0,0,0-1.6-2.7H40.443c.651-.46,1.232-.912,1.75-1.355h0a5.454,5.454,0,0,1,1.583-.21,5.006,5.006,0,1,1-3.31,8.755A2.286,2.286,0,0,0,40.916,126.97Zm-1.02-3.2a5.166,5.166,0,0,0,.387-1.067h4.976a.258.258,0,0,1,.19.431l-.7.763a3.775,3.775,0,0,1-2.782,1.227H40.847A2.291,2.291,0,0,0,39.9,123.774Zm-4.087-2.715-3.18-2.151a3.648,3.648,0,1,1,3.518,6.1l.341-.515A2.494,2.494,0,0,0,35.809,121.058Zm-20.674-11.82.289-1.048,4.763.664-1.634,1.332a.583.583,0,0,1-.446.125l-2.49-.342a.582.582,0,0,1-.481-.731Zm-.84-4.309.234-.047a.114.114,0,0,1,.112.038.122.122,0,0,1,.03.121l-.375,1.36V104.93Zm-2.651-.724a.543.543,0,1,1,1.087,0v2.727a.543.543,0,1,1-1.087,0Zm-1.565,2.368a3.222,3.222,0,0,0,.278,1.4,5.624,5.624,0,0,1-3.495,1.382A12.353,12.353,0,0,1,10.079,106.574Zm-8.349,13.7a.114.114,0,0,1-.141-.024.115.115,0,0,1-.03-.141,6.822,6.822,0,0,1,3.458-3.67l2.7,1.046Zm13.035,4.492a5.006,5.006,0,1,1-5.791-5.121l-.183,1.926a3.169,3.169,0,1,0,4.051,3.765l1.915-.6.008.028S14.766,124.76,14.766,124.762Zm-4.425,1.272c.039,0,.077,0,.116,0a1.6,1.6,0,0,1-1.845-2.562l-.059.62v.013a1.8,1.8,0,0,0,1.789,1.934Zm-.229-1.808.532-5.611.972.376h0a3.777,3.777,0,0,1,2.272,2.525l.46,1.7-3.939,1.242a.23.23,0,0,1-.3-.233Zm22.733,2.933a2.734,2.734,0,0,1-2.284,1.227H18.6a1.607,1.607,0,0,1-1.548-1.185L15.4,121.107a5.309,5.309,0,0,0-.7-1.538l18.4,4.612a.793.793,0,0,0,.949-.569.782.782,0,0,0-.569-.949l-22.818-5.718L5.361,114.89a1.271,1.271,0,0,1-.719-1.641A14.973,14.973,0,0,1,5.779,110.9a7.844,7.844,0,0,0,5.821-1.946,2.5,2.5,0,0,0,2.164-.629l-.136.495a2.146,2.146,0,0,0,1.776,2.7l2.49.342a2.151,2.151,0,0,0,1.648-.463l2.6-2.119a2.048,2.048,0,0,1,1.459-.457l11.464.882a.354.354,0,0,1,.176.643l-6.044,4.24a2.373,2.373,0,0,0,.033,3.908l5.7,3.858a.925.925,0,0,1,.252,1.273Zm1.516.545.674-1.017A6.319,6.319,0,0,0,39,125.06a.74.74,0,0,1,.351.622v1.288a.734.734,0,0,1-.733.733Zm9.417,4.924a8.03,8.03,0,0,1-6.54-3.36h1.382a2.3,2.3,0,0,0,.5-.055,6.568,6.568,0,1,0,4.872-11.193,12,12,0,0,0,1.039-1.379,8.043,8.043,0,0,1-1.252,15.987Z" transform="translate(0 -102.098)"/></g></g></g></svg>