<svg xmlns="http://www.w3.org/2000/svg" width="29.269" height="35.123" viewBox="0 0 29.269 35.123"><defs><style>.a{opacity:0.699;}.b{fill:#d0d0d0;}</style></defs><g class="a" transform="translate(-42.675 0)"><g transform="translate(42.675)"><path class="b" d="M71.84,29.625l-2.513-4.188a12.441,12.441,0,0,1-1.774-6.4V15.366a10.257,10.257,0,0,0-7.317-9.813V2.927a2.927,2.927,0,0,0-5.854,0V5.554a10.257,10.257,0,0,0-7.317,9.813v3.669a12.449,12.449,0,0,1-1.772,6.4l-2.513,4.188a.733.733,0,0,0,.626,1.109H71.212a.732.732,0,0,0,.628-1.108Z" transform="translate(-42.675)"/></g><g transform="translate(52.7 32.196)"><g transform="translate(0)"><path class="b" d="M188.815,469.333a5.091,5.091,0,0,0,9.217,0Z" transform="translate(-188.815 -469.333)"/></g></g></g></svg>