<svg xmlns="http://www.w3.org/2000/svg" width="27.71" height="27.691" viewBox="0 0 27.71 27.691"><defs><style>.a{fill:#ef5827;}</style></defs><g transform="translate(0 0)"><g transform="translate(0 0)"><path class="a" d="M27.7,22.043a1.339,1.339,0,0,1-.411,1.173l-3.9,3.872a2.2,2.2,0,0,1-.689.5,2.848,2.848,0,0,1-.836.264q-.029,0-.176.015t-.381.015a13.523,13.523,0,0,1-1.8-.191,13.7,13.7,0,0,1-3.051-.939,25.608,25.608,0,0,1-4.092-2.244A30.511,30.511,0,0,1,7.485,20.4a32.145,32.145,0,0,1-3.4-3.872A27.589,27.589,0,0,1,1.912,13.11,18.407,18.407,0,0,1,.68,10.265a15.1,15.1,0,0,1-.557-2.2A7.266,7.266,0,0,1,0,6.612q.029-.528.029-.587A2.851,2.851,0,0,1,.3,5.19,2.2,2.2,0,0,1,.8,4.5L4.7.6A1.292,1.292,0,0,1,5.637.188a1.094,1.094,0,0,1,.675.22,2.039,2.039,0,0,1,.5.543L9.949,6.906A1.428,1.428,0,0,1,10.1,7.932a1.828,1.828,0,0,1-.5.939L8.16,10.309a.489.489,0,0,0-.1.191.724.724,0,0,0-.044.22,5.3,5.3,0,0,0,.528,1.408,12.926,12.926,0,0,0,1.085,1.716,19.054,19.054,0,0,0,2.083,2.332,19.431,19.431,0,0,0,2.347,2.1,13.553,13.553,0,0,0,1.716,1.1,4.561,4.561,0,0,0,1.056.425l.367.073a.7.7,0,0,0,.191-.044.49.49,0,0,0,.191-.1l1.672-1.7a1.8,1.8,0,0,1,1.232-.469,1.533,1.533,0,0,1,.792.176H21.3l5.662,3.344A1.476,1.476,0,0,1,27.7,22.043Z" transform="translate(0 -0.188)"/></g></g></svg>