<svg xmlns="http://www.w3.org/2000/svg" width="45.396" height="24.977" viewBox="0 0 45.396 24.977"><defs><style>.a{fill:#faa831;}</style></defs><g transform="translate(-6.134 -16)"><path class="a" d="M46.456,25.476H57.581a2.683,2.683,0,0,0,1.622-.548,2.683,2.683,0,0,0,1.622.548H71.952a2.683,2.683,0,0,0,1.622-.548,2.683,2.683,0,0,0,1.622.548H86.323a2.82,2.82,0,0,0,2.764-2.866V17.231a6.237,6.237,0,0,0-3.256-5.55,6.95,6.95,0,0,0,1.515-4.352,6.59,6.59,0,1,0-13.172,0,6.949,6.949,0,0,0,1.515,4.352,6.046,6.046,0,0,0-2.114,1.88,6.035,6.035,0,0,0-2.115-1.88,6.949,6.949,0,0,0,1.515-4.352,6.59,6.59,0,1,0-13.172,0,6.952,6.952,0,0,0,1.516,4.353,6.035,6.035,0,0,0-2.115,1.88,6.041,6.041,0,0,0-2.115-1.88A6.949,6.949,0,0,0,58.6,7.329a6.59,6.59,0,1,0-13.172,0,6.951,6.951,0,0,0,1.515,4.352,6.238,6.238,0,0,0-3.256,5.55V22.61A2.82,2.82,0,0,0,46.456,25.476ZM80.76,2.868a4.389,4.389,0,0,1,4.3,4.461,4.305,4.305,0,1,1-8.6,0A4.388,4.388,0,0,1,80.76,2.868ZM77.794,13.422a6.355,6.355,0,0,0,5.932,0A3.81,3.81,0,0,1,86.8,17.231V22.61a.49.49,0,0,1-.481.5H75.2a.49.49,0,0,1-.48-.5V17.231A3.81,3.81,0,0,1,77.794,13.422ZM66.389,2.868a4.389,4.389,0,0,1,4.3,4.461,4.305,4.305,0,1,1-8.6,0A4.388,4.388,0,0,1,66.389,2.868ZM63.423,13.422a6.355,6.355,0,0,0,5.932,0,3.811,3.811,0,0,1,3.078,3.808V22.61a.49.49,0,0,1-.481.5H60.827a.49.49,0,0,1-.481-.5V17.231A3.811,3.811,0,0,1,63.423,13.422ZM52.019,2.868a4.389,4.389,0,0,1,4.3,4.461,4.305,4.305,0,1,1-8.6,0A4.389,4.389,0,0,1,52.019,2.868ZM45.975,17.231a3.811,3.811,0,0,1,3.078-3.808,6.355,6.355,0,0,0,5.932,0,3.81,3.81,0,0,1,3.078,3.808V22.61a.49.49,0,0,1-.481.5H46.456a.49.49,0,0,1-.481-.5Zm0,0" transform="translate(-37.556 15.5)"/></g></svg>